HIERARCHY
ROOT Hips
{
	OFFSET 0.00000 0.00000 0.00000
	CHANNELS 6 Xposition Yposition Zposition Zrotation Yrotation Xrotation 
	JOINT LHipJoint
	{
		OFFSET 0 0 0
		CHANNELS 3 Zrotation Yrotation Xrotation
		JOINT LeftHip
		{
			OFFSET 1.26600 -1.82114 0.91038
			CHANNELS 3 Zrotation Yrotation Xrotation
			JOINT LeftKnee
			{
				OFFSET 2.50076 -6.87080 0.00000
				CHANNELS 3 Zrotation Yrotation Xrotation
				JOINT LeftAnkle
				{
					OFFSET 2.57364 -7.07102 0.00000
					CHANNELS 3 Zrotation Yrotation Xrotation
					JOINT LeftToe
					{
						OFFSET 0.13572 -0.37290 1.97004
						CHANNELS 3 Zrotation Yrotation Xrotation
						End Site
						{
							OFFSET 0.00000 -0.00000 1.01383
						}
					}
				}
			}
		}
	}
	JOINT RHipJoint
	{
		OFFSET 0 0 0
		CHANNELS 3 Zrotation Yrotation Xrotation
		JOINT RightHip
		{
			OFFSET -1.20803 -1.82114 0.91038
			CHANNELS 3 Zrotation Yrotation Xrotation
			JOINT RightKnee
			{
				OFFSET -2.54916 -7.00377 0.00000
				CHANNELS 3 Zrotation Yrotation Xrotation
				JOINT RightAnkle
				{
					OFFSET -2.56374 -7.04382 0.00000
					CHANNELS 3 Zrotation Yrotation Xrotation
					JOINT RightToe
					{
						OFFSET -0.23520 -0.64621 2.09921
						CHANNELS 3 Zrotation Yrotation Xrotation
						End Site
						{
							OFFSET -0.00000 -0.00000 1.10065
						}
					}
				}
			}
		}
	}
	JOINT lowerback
	{
		OFFSET 0 0 0
		CHANNELS 3 Zrotation Yrotation Xrotation
		JOINT Chest
		{
			OFFSET 0.05492 2.10797 -0.12074
			CHANNELS 3 Zrotation Yrotation Xrotation
			JOINT Chest2
			{
				OFFSET 0.04577 2.11592 -0.04483
				CHANNELS 3 Zrotation Yrotation Xrotation
				JOINT lowerneck
				{
					OFFSET 0 0 0
					CHANNELS 3 Zrotation Yrotation Xrotation
					JOINT Neck
					{
						OFFSET -0.10759 1.80167 0.15770
						CHANNELS 3 Zrotation Yrotation Xrotation
						JOINT Head
						{
							OFFSET 0.09237 1.77509 -0.40848
							CHANNELS 3 Zrotation Yrotation Xrotation
							End Site
							{
								OFFSET 0.03805 1.84093 -0.15754
							}
						}
					}
				}
				JOINT LeftCollar
				{
					OFFSET 0 0 0
					CHANNELS 3 Zrotation Yrotation Xrotation
					JOINT LeftShoulder
					{
						OFFSET 3.42372 1.09575 -0.28209
CHANNELS 3 Zrotation Xrotation Yrotation
						JOINT LeftElbow
						{
OFFSET 0 -4.956810 0.000000
CHANNELS 3 Zrotation Xrotation Yrotation
							JOINT LeftWrist
							{
OFFSET 0 -3.409150 0.000000
CHANNELS 3 Zrotation Xrotation Yrotation
								JOINT lhand
								{
									OFFSET 0 0 0
CHANNELS 3 Zrotation Xrotation Yrotation
									JOINT LFingers
									{
OFFSET 0 -0.616400 0.000000
CHANNELS 3 Zrotation Xrotation Yrotation
										End Site
										{
OFFSET 0 -0.496960 0.000000
										}
									}
								}
								JOINT LThumb
								{
OFFSET 0 0.000000 0.000000
CHANNELS 3 Zrotation Xrotation Yrotation
									End Site
									{
OFFSET 0 -0.504550 0.504550
									}
								}
							}
						}
					}
				}
				JOINT RightCollar
				{
					OFFSET 0 0 0
					CHANNELS 3 Zrotation Yrotation Xrotation
					JOINT RightShoulder
					{
						OFFSET -3.24731 1.15872 -0.32221
CHANNELS 3 Zrotation Xrotation Yrotation
						JOINT RightElbow
						{
OFFSET 0 -5.352000 0.000000
CHANNELS 3 Zrotation Xrotation Yrotation
							JOINT RightWrist
							{
OFFSET 0 -3.437210 -0.000000
CHANNELS 3 Zrotation Xrotation Yrotation
								JOINT rhand
								{
									OFFSET 0 0 0
CHANNELS 3 Zrotation Xrotation Yrotation
									JOINT RFingers
									{
OFFSET 0 -0.720090 0.000000
CHANNELS 3 Zrotation Xrotation Yrotation
										End Site
										{
OFFSET 0 -0.580560 0.000000
										}
									}
								}
								JOINT RThumb
								{
OFFSET 0 0.000000 0.000000
CHANNELS 3 Zrotation Xrotation Yrotation
									End Site
									{
OFFSET 0 -0.589420 0.589420
									}
								}
							}
						}
					}
				}
			}
		}
	}
}
MOTION
Frames: 8
Frame Time: 0.008333333333333333
-2.956800 20.364400 -11.557900 -61.938900 82.129400 -60.023400 0.000000 0.000000 0.000000 -14.323300 -4.980400 -7.750200 3.026900 10.738400 31.402600 1.096700 -10.406000 -19.001400 0.604300 4.976100 13.840300 0.000000 0.000000 0.000000 27.590500 -3.211000 -6.134800 -2.297400 -9.459900 27.244700 -1.522900 3.587900 -22.443800 -0.003900 -0.401200 1.102400 5.007900 0.969800 0.945000 3.092300 1.514900 -1.502100 0.333600 0.732400 -2.034400 -7.845600 -1.872700 -18.047300 2.957700 -0.629000 27.812900 2.395100 -0.557000 12.232600 0.000000 0.000000 0.000000 -0.595300 5.499800 -21.411800 13.818500 -22.474600 2.758300 20.998500 7.297400 -19.213000 0.000000 0.000000 0.000000 -7.125000 0.000000 0.000000 -7.259800 50.309500 0.954400 0.000000 0.000000 0.000000 -4.474400 3.103300 15.750100 -12.910000 -21.155200 -2.420700 -24.422900 -13.743800 -10.948200 0.000000 0.000000 0.000000 7.125000 0.000000 -0.000000 1.877300 17.989300 1.206400
-2.905832 20.333320 -11.648056 -69.987071 81.370057 -68.455004 0.000000 0.000000 0.000000 -13.324862 -5.101646 -7.483766 3.168472 10.962918 32.154900 1.115086 -11.268760 -19.294975 0.638850 5.113604 14.232783 0.000000 0.000000 0.000000 28.527543 -3.954444 -5.385196 -2.234361 -9.338053 26.858735 -1.533754 3.628969 -22.519323 -0.027647 -1.071084 2.944380 6.142511 0.570522 0.793309 3.734155 1.005280 -1.165900 0.380523 0.490465 -1.615091 -7.334837 -1.295931 -17.725334 1.959080 0.511553 30.111860 2.160150 -0.125814 13.037913 0.000000 0.000000 0.000000 -1.799054 5.296447 -20.558527 13.875833 -22.556909 2.780281 21.836020 7.998936 -19.061268 0.000000 0.000000 0.000000 -7.125000 0.000000 0.000000 -6.396369 50.288288 0.836527 0.000000 0.000000 0.000000 -5.387732 2.278489 14.564281 -12.077046 -19.920077 -2.128456 -23.177158 -11.806474 -12.308237 0.000000 0.000000 0.000000 7.125000 0.000000 0.000000 2.814805 16.638525 1.893247
-2.821149 20.289037 -11.723704 -70.576386 81.979115 -69.786435 0.000000 0.000000 0.000000 -14.358819 -4.482562 -6.449673 3.114177 10.877633 31.868285 1.163502 -11.281305 -19.673085 0.419313 4.155797 11.515529 0.000000 0.000000 0.000000 27.814812 -3.041561 -4.883597 -2.532181 -9.896152 28.641064 -1.665067 2.350952 -23.764148 -0.009899 -0.641503 1.762914 5.701227 0.750229 0.894706 3.440505 1.213449 -0.936728 0.318788 0.598485 -1.427956 -7.419499 -1.320589 -16.763213 1.787735 0.811953 33.152197 2.236188 -0.012680 14.133207 0.000000 0.000000 0.000000 -1.643904 5.763929 -21.459575 14.062307 -22.823654 2.852254 20.415278 7.121752 -19.123439 0.000000 0.000000 0.000000 -7.125000 0.000000 0.000000 -7.802065 50.122148 0.989890 0.000000 0.000000 0.000000 -5.000736 1.961145 10.657108 -11.744717 -19.420760 -2.016600 -22.661084 -8.205450 -11.691419 0.000000 0.000000 0.000000 7.125000 0.000000 0.000000 3.146286 17.352391 2.067889
-2.746304 20.255681 -11.848299 -60.968555 84.549477 -61.185736 0.000000 0.000000 0.000000 -18.150141 -4.033819 -4.399534 2.844813 10.439345 30.411747 1.077642 -11.515575 -19.047641 0.679114 5.268702 14.676718 0.000000 0.000000 0.000000 24.135608 -2.481206 -5.956620 -3.444593 -11.381012 33.577302 -1.740073 2.485305 -24.283220 -0.006026 0.227944 -0.626572 2.960867 0.513873 1.599808 2.769675 0.818771 -0.319564 1.159103 0.415074 -1.225174 -6.676969 -0.746578 -15.947582 0.341137 2.222280 35.443001 1.809933 0.508227 14.966030 0.000000 0.000000 0.000000 -1.971428 5.600075 -20.967515 14.112824 -22.895747 2.871841 20.867200 6.372682 -18.571244 0.000000 0.000000 0.000000 -7.125000 0.000000 0.000000 -7.203059 49.620442 0.824407 0.000000 0.000000 0.000000 -5.475854 1.829712 13.049998 -12.457050 -20.486385 -2.259781 -23.475770 -10.973061 -11.328402 0.000000 0.000000 0.000000 7.125000 0.000000 0.000000 2.560257 17.666561 1.664242
-2.670183 20.273880 -11.983957 -47.415824 85.423389 -48.689125 0.000000 0.000000 0.000000 -20.307072 -2.723715 -2.009383 2.411889 9.675560 27.932699 0.963021 -11.196822 -18.058533 0.607648 4.985270 13.867464 0.000000 0.000000 0.000000 21.531607 -0.588936 -9.347200 -5.519284 -13.942391 43.013975 -1.330138 2.162199 -21.200428 -0.457276 4.333141 -12.016524 2.102425 0.709973 2.265761 2.227527 1.035958 0.789786 1.076479 0.530141 -0.465013 -6.336980 -0.553745 -15.171282 -0.621949 2.990955 36.856611 1.507927 0.769813 15.475707 0.000000 0.000000 0.000000 -2.079468 4.582132 -19.908537 14.015736 -22.757227 2.834185 20.669866 7.237124 -18.659806 0.000000 0.000000 0.000000 -7.125000 0.000000 0.000000 -7.419425 49.681403 0.860527 0.000000 0.000000 0.000000 -5.328819 1.071635 14.462249 -13.143603 -21.497205 -2.505647 -23.872234 -12.664739 -11.771283 0.000000 0.000000 0.000000 7.125000 0.000000 0.000000 2.304350 17.148754 1.523775
-2.609738 20.280471 -12.105565 -10.847809 87.312681 -13.192678 0.000000 0.000000 0.000000 -23.767209 -0.609388 0.842676 1.723365 8.263612 23.518204 0.680631 -11.408849 -15.658584 0.466449 4.352818 12.075859 0.000000 0.000000 0.000000 16.303206 1.172192 -16.308045 -9.226112 -16.948153 56.864678 -0.398414 3.649534 -11.199488 -0.366845 3.806476 -10.542640 -0.749346 0.626960 3.282974 1.407311 0.848137 2.034430 1.836760 0.423456 0.213651 -6.856825 -0.584776 -15.012108 -0.937550 3.441502 37.843506 1.567403 0.843059 15.936840 0.000000 0.000000 0.000000 -1.821101 3.866549 -20.556965 14.288844 -23.146144 2.940700 21.342136 6.659657 -18.932319 0.000000 0.000000 0.000000 -7.125000 0.000000 0.000000 -6.843107 50.072860 0.859197 0.000000 0.000000 0.000000 -5.538089 0.411570 17.161406 -14.016354 -22.757996 -2.834476 -23.705422 -14.026954 -11.100469 0.000000 0.000000 0.000000 7.125000 0.000000 0.000000 2.388854 17.891544 1.540607
-2.464313 20.287336 -12.153362 7.435151 88.889769 3.792124 0.000000 0.000000 0.000000 -24.641055 0.143210 4.499084 1.274546 7.154742 20.174683 0.461213 -12.411812 -13.927330 1.267550 7.135431 20.117520 0.000000 0.000000 0.000000 13.893337 1.540344 -22.055118 -12.122291 -18.440884 66.374862 -0.074161 3.241439 -4.988285 -0.125230 -2.279267 6.278132 -2.407129 0.298554 4.693870 1.484887 0.364991 2.865530 2.861644 0.166092 0.291274 -6.493567 -0.574563 -14.114942 -2.023031 3.953096 38.758607 1.133526 0.991736 16.233234 0.000000 0.000000 0.000000 -1.637733 3.955717 -20.340084 14.285394 -23.141201 2.939340 20.710724 7.381560 -18.868002 0.000000 0.000000 0.000000 -7.125000 0.000000 0.000000 -7.439629 49.904268 0.903766 0.000000 0.000000 0.000000 -5.393844 0.818867 17.470737 -14.674679 -23.690898 -3.094107 -22.543706 -14.165571 -11.406102 0.000000 0.000000 0.000000 7.125000 0.000000 0.000000 3.216717 17.669893 2.092569
-2.221469 20.312716 -12.160782 -141.443830 89.237682 -145.631708 0.000000 0.000000 0.000000 -24.116341 -0.240888 7.292270 1.033308 6.465367 18.140883 0.442880 -11.904486 -13.544770 1.154108 6.820919 19.185875 0.000000 0.000000 0.000000 14.097129 0.511331 -27.566211 -13.782329 -19.046584 71.538566 -0.243207 -0.099221 -9.356746 -0.030425 -0.852638 2.345071 -2.568202 0.187135 4.943595 1.681085 0.222688 3.312847 3.162239 0.087019 0.622699 -7.444679 -1.000584 -13.504198 -1.256911 3.592575 40.211344 1.604088 0.824254 16.841967 0.000000 0.000000 0.000000 -1.148513 3.997799 -18.698997 13.626149 -22.197576 2.685249 20.405520 8.297080 -18.458476 0.000000 0.000000 0.000000 -7.125000 0.000000 0.000000 -7.617527 49.430954 0.836076 0.000000 0.000000 0.000000 -4.210511 1.631042 15.591885 -14.321274 -23.192186 -2.953455 -23.148074 -13.714691 -11.710422 0.000000 0.000000 0.000000 7.125000 0.000000 0.000000 2.806824 17.285564 1.848492
